Coordinates
version=1
nRows=10
nColumns=27
inDegrees=yes

Units are S.I. units (second, meters, Newtons, ...)
If the header above contains a line with 'inDegrees', this indicates whether rotational values are in degrees (yes) or radians (no).

endheader
time	pelvis_rotation	pelvis_tilt	pelvis_list	pelvis_tx	pelvis_ty	pelvis_tz	hip_flexion_r	hip_adduction_r	hip_rotation_r	knee_angle_r	knee_rotation_r	knee_adduction_r	knee_angle_r_beta	ankle_angle_r	subtalar_angle_r	mtp_angle_r	hip_flexion_l	hip_adduction_l	hip_rotation_l	knee_angle_l	knee_rotation_l	knee_adduction_l	knee_angle_l_beta	ankle_angle_l	subtalar_angle_l	mtp_angle_l
      3.06500000	      2.76475984	    -17.10261155	     -3.83582429	      0.07189724	      0.82177922	     -1.12686672	     29.75605394	    -23.48977726	    -28.80570761	     24.22544349	      0.00000000	      0.83288750	      0.42281375	     -1.19031891	      0.00000000	      0.00000000	     37.59796871	    -26.74710161	     -2.35459119	     25.92295363	      0.00000000	      6.60467417	      0.45244089	     -0.08877942	      0.00000000	      0.00000000
      3.07000000	      2.63808119	    -17.37735949	     -3.57860388	      0.07088344	      0.82141800	     -1.12705469	     30.52420220	    -23.85481916	    -28.36762974	     24.76854429	      0.00000000	      0.85994447	      0.43229265	     -1.07189865	      0.00000000	      0.00000000	     37.90412502	    -26.56311553	     -2.57609464	     26.06025084	      0.00000000	      6.55921821	      0.45483718	     -0.12304265	      0.00000000	      0.00000000
      3.07500000	      2.41050996	    -17.63292092	     -3.31311297	      0.06983072	      0.82100030	     -1.12725438	     31.37371550	    -24.20082403	    -27.75251349	     25.35278074	      0.00000000	      0.87355417	      0.44248950	     -0.97196749	      0.00000000	      0.00000000	     38.15323364	    -26.42382816	     -2.95756068	     26.22302852	      0.00000000	      6.45942946	      0.45767819	     -0.12234357	      0.00000000	      0.00000000
      3.08000000	      2.36408303	    -17.98037178	     -3.19325824	      0.06866682	      0.82055929	     -1.12728083	     32.15625397	    -24.44834489	    -27.47096477	     25.89588875	      0.00000000	      0.95732192	      0.45196852	     -0.84596764	      0.00000000	      0.00000000	     38.70221869	    -26.33093272	     -2.92545948	     26.46932120	      0.00000000	      6.39686281	      0.46197681	     -0.12413818	      0.00000000	      0.00000000
      3.08500000	      2.08456581	    -18.29178279	     -2.80724129	      0.06751606	      0.82003159	     -1.12756191	     33.21567902	    -24.91534105	    -26.65907693	     26.61573064	      0.00000000	      0.90461247	      0.46453213	     -0.73500806	      0.00000000	      0.00000000	     38.96090402	    -26.11936867	     -3.45541377	     26.64969621	      0.00000000	      6.28601666	      0.46512494	     -0.14305311	      0.00000000	      0.00000000
      3.09000000	      1.05436526	    -18.73036463	     -2.41331692	      0.06566600	      0.81930389	     -1.12785243	     35.01532247	    -25.06809624	    -24.38101395	     27.45489259	      0.00000000	      0.39556795	      0.47917827	     -0.60786757	      0.00000000	      0.00000000	     39.10193949	    -26.26007939	     -5.07648526	     26.98698775	      0.00000000	      5.73899939	      0.47101179	     -0.05001604	      0.00000000	      0.00000000
      3.09500000	      1.28780438	    -18.91404454	     -2.01246279	      0.06474512	      0.81874908	     -1.12803316	     35.63305181	    -25.74345951	    -24.53902431	     28.17450950	      0.00000000	      0.82614564	      0.49173796	     -0.47453945	      0.00000000	      0.00000000	     39.42381099	    -25.79875847	     -4.80300720	     27.07331961	      0.00000000	      5.96542419	      0.47251857	     -0.17799765	      0.00000000	      0.00000000
      3.10000000	      1.72561027	    -19.48384756	     -2.17752732	      0.06338035	      0.81812260	     -1.12775160	     36.26625919	    -25.89157087	    -25.07159447	     28.65907758	      0.00000000	      1.03221395	      0.50019526	     -0.41091424	      0.00000000	      0.00000000	     40.73916175	    -25.76391983	     -3.79582655	     27.60845255	      0.00000000	      6.02095669	      0.48185840	     -0.16871182	      0.00000000	      0.00000000
      3.10500000	      1.15201988	    -19.87976501	     -1.62782181	      0.06164097	      0.81726489	     -1.12804653	     37.87888600	    -26.37216980	    -23.51673661	     29.62454901	      0.00000000	      0.91141118	      0.51704592	     -0.26182146	      0.00000000	      0.00000000	     40.95745762	    -25.56361633	     -4.73801549	     27.85223119	      0.00000000	      5.85129731	      0.48611314	     -0.17738013	      0.00000000	      0.00000000
      3.11000000	      0.95462551	    -20.25492413	     -1.38835261	      0.06024536	      0.81646190	     -1.12806021	     38.99999257	    -26.67033525	    -22.80865905	     30.36859539	      0.00000000	      0.96026207	      0.53003198	     -0.16582350	      0.00000000	      0.00000000	     41.50005863	    -25.49258390	     -5.01690597	     28.21055490	      0.00000000	      5.67183232	      0.49236707	     -0.17732044	      0.00000000	      0.00000000
